<?xml version="1.0" encoding="UTF-8"?>
<svg width="300" height="300" viewBox="0 0 300 300" fill="none" xmlns="http://www.w3.org/2000/svg">
  <g>
    <path d="M150 30C85.2 30 32.5 82.7 32.5 147.5C32.5 212.3 85.2 265 150 265C214.8 265 267.5 212.3 267.5 147.5C267.5 82.7 214.8 30 150 30Z" fill="#00B4D8"/>
    <path d="M150 50C96.3 50 52.5 93.8 52.5 147.5C52.5 201.2 96.3 245 150 245C203.7 245 247.5 201.2 247.5 147.5C247.5 93.8 203.7 50 150 50Z" fill="white"/>
    <g transform="translate(80, 80)">
      <rect x="0" y="20" width="20" height="80" fill="#00B4D8"/>
      <rect x="40" y="40" width="20" height="60" fill="#00B4D8"/>
      <rect x="80" y="0" width="20" height="100" fill="#00B4D8"/>
      <path d="M120 60L140 40V120H120V60Z" fill="#00B4D8"/>
    </g>
  </g>
</svg> 